<svg width="36" height="37" viewBox="0 0 36 37" fill="none" xmlns="http://www.w3.org/2000/svg">
<g clip-path="url(#clip0_101_628)">
<path d="M26.7607 36.0001C29.9814 36.0001 32.0982 35.1374 33.9569 33.0446C34.1041 32.8977 34.2514 32.7327 34.3804 32.5858C35.4847 31.3557 36 30.144 36 28.9875C36 27.6657 35.227 26.4357 33.5888 25.2975L28.2331 21.5892C26.5767 20.451 24.6442 20.3225 23.0982 21.8462L21.681 23.2598C21.2577 23.682 20.8896 23.7004 20.4847 23.4433C19.4908 22.8192 17.4847 21.0751 16.1227 19.7167C14.6871 18.3031 13.3067 16.7243 12.5706 15.5677C12.3313 15.1455 12.3497 14.7967 12.773 14.3745L14.1718 12.9609C15.7178 11.4188 15.589 9.47286 14.4479 7.83899L10.7301 2.49679C9.58896 0.862928 8.35583 0.110248 7.03067 0.0918895C5.87117 0.0735315 4.65644 0.605915 3.42331 1.7074C3.25767 1.85426 3.11043 1.98277 2.96319 2.11128C0.865031 3.9838 0 6.09497 0 9.27092C0 14.5213 3.23926 20.9099 9.18405 26.8396C15.092 32.7327 21.5153 36.0001 26.7607 36.0001ZM26.7791 33.1733C22.0859 33.2649 16.0675 29.6667 11.3006 24.9303C6.49693 20.1572 2.72393 13.9522 2.81595 9.27092C2.85276 7.25153 3.57055 5.50752 5.00613 4.25917C5.13497 4.14902 5.22699 4.05723 5.35583 3.96544C5.90798 3.48813 6.49693 3.23112 7.03067 3.23112C7.56442 3.23112 8.04294 3.43306 8.39264 3.9838L11.9632 9.32599C12.3497 9.89509 12.3865 10.5376 11.816 11.1067L10.1963 12.7222C8.92638 13.9889 9.0184 15.531 9.93865 16.761C10.9877 18.1746 12.8098 20.2307 14.227 21.6259C15.6258 23.0395 17.8528 25.0221 19.2883 26.0869C20.5215 27.0048 22.0675 27.0966 23.3374 25.8299L24.9571 24.2144C25.5276 23.6453 26.1534 23.682 26.7423 24.0492L32.0982 27.6106C32.6503 27.9778 32.8526 28.4367 32.8526 28.9875C32.8526 29.5199 32.5952 30.1073 32.1164 30.6581C32.0063 30.7864 31.9327 30.8784 31.8219 31.0067C30.5704 32.4389 28.8221 33.1362 26.7791 33.1733Z" fill="white" fill-opacity="0.85"/>
</g>
<defs>
<clipPath id="clip0_101_628">
<rect width="36" height="36" fill="white" transform="translate(0 0.5)"/>
</clipPath>
</defs>
</svg>
