<svg width="50" height="50" viewBox="0 0 50 50" fill="none" xmlns="http://www.w3.org/2000/svg">
<path d="M25 49.9757C38.6765 49.9757 50 38.6332 50 24.9879C50 11.318 38.652 0 24.9755 0C11.3235 0 0 11.318 0 24.9879C0 38.6332 11.348 49.9757 25 49.9757ZM25 45.8111C13.4314 45.8111 4.19118 36.5509 4.19118 24.9879C4.19118 13.4248 13.4069 4.16464 24.9755 4.16464C36.5441 4.16464 45.8333 13.4248 45.8333 24.9879C45.8333 36.5509 36.5686 45.8111 25 45.8111ZM22.3284 32.3617C27.9412 32.3617 32.5245 27.7806 32.5245 22.1706C32.5245 16.5606 27.9412 11.9795 22.3284 11.9795C16.7157 11.9795 12.1324 16.5851 12.1324 22.1706C12.1324 27.7561 16.7157 32.3617 22.3284 32.3617ZM22.3284 29.03C18.5784 29.03 15.4657 25.9188 15.4657 22.1706C15.4657 18.4224 18.5784 15.3112 22.3284 15.3112C26.0784 15.3112 29.1667 18.3979 29.1667 22.1706C29.1667 25.9188 26.0784 29.03 22.3284 29.03ZM35.7598 37.7757C36.9363 37.7757 37.7451 36.9183 37.7451 35.6934C37.7451 35.13 37.4755 34.6155 37.0833 34.1991L29.3382 26.4087L26.201 29.2505L34.0196 37.0408C34.5098 37.5553 35.049 37.7757 35.7598 37.7757Z" fill="white" fill-opacity="0.85"/>
</svg>
