<svg width="35" height="32" viewBox="0 0 35 32" fill="none" xmlns="http://www.w3.org/2000/svg">
<path d="M18.1151 0H18.1136C18.0841 0 18.0564 0 18.0301 0.000352853C17.8199 0.00246965 17.4744 0.00582123 17.4433 0.00617408C16.6856 0.00617408 15.1695 0.112897 13.541 0.82962C12.6099 1.23914 11.7724 1.79287 11.0518 2.47545C10.1927 3.28876 9.49279 4.29152 8.97194 5.4563C8.20917 7.16176 8.39024 10.0344 8.53567 12.3429L8.5362 12.3465C8.55177 12.5937 8.56813 12.8519 8.58308 13.1034C8.47118 13.1547 8.28975 13.2087 8.02234 13.2087C7.59208 13.2087 7.08044 13.0716 6.50201 12.8013C6.33182 12.7223 6.13756 12.6824 5.92323 12.6824C5.57886 12.6824 5.21583 12.7834 4.90092 12.968C4.50471 13.2 4.24872 13.5279 4.17919 13.8913C4.13337 14.1318 4.13558 14.607 4.665 15.0889C4.9562 15.3542 5.38399 15.5989 5.93614 15.8165C6.08104 15.8734 6.253 15.9277 6.43514 15.9853C7.06717 16.1856 8.02376 16.4882 8.27321 17.0736C8.39962 17.3704 8.34522 17.761 8.11195 18.233C8.10585 18.2459 8.09974 18.2585 8.09417 18.2718C8.03588 18.4075 7.49204 19.6358 6.37649 20.9312C5.7426 21.6679 5.0444 22.2835 4.30241 22.7615C3.39677 23.3452 2.41683 23.7267 1.3901 23.8954C0.986907 23.9613 0.698976 24.3195 0.721444 24.7266C0.728344 24.8439 0.755943 24.9608 0.803799 25.074C0.804152 25.0747 0.804595 25.0754 0.804949 25.076C0.967977 25.4563 1.34596 25.7793 1.96048 26.0642C2.7114 26.4119 3.83447 26.7045 5.29818 26.9334C5.37214 27.0736 5.44892 27.4261 5.50208 27.6674C5.55772 27.9239 5.61575 28.1876 5.69846 28.4677C5.78771 28.7712 6.01921 29.1339 6.61391 29.1339C6.8393 29.1339 7.09849 29.0833 7.39862 29.0252C7.83817 28.9392 8.43925 28.8219 9.18946 28.8219C9.60539 28.8219 10.0364 28.8585 10.4703 28.9303C11.3067 29.0692 12.0277 29.577 12.862 30.1652C14.0831 31.0258 15.4652 32 17.577 32C17.6346 32 17.6923 31.9981 17.7494 31.9942C17.8192 31.9974 17.9057 32 17.997 32C20.1094 32 21.4912 31.0255 22.7109 30.1655L22.7129 30.1637C23.5473 29.5763 24.2675 29.0692 25.1036 28.9303C25.5373 28.8585 25.9683 28.8219 26.3844 28.8219C27.1011 28.8219 27.6686 28.913 28.1753 29.0116C28.5059 29.0765 28.7629 29.1077 28.9601 29.1077L28.9793 29.1081H28.9993C29.4343 29.1081 29.7539 28.87 29.8759 28.4534C29.9569 28.1792 30.0147 27.9217 30.0718 27.6609C30.1215 27.4347 30.2009 27.0722 30.2749 26.9305C31.7396 26.7011 32.8622 26.4092 33.6132 26.0615C34.2263 25.7779 34.6039 25.4553 34.7679 25.0767C34.8171 24.9631 34.8458 24.8455 34.8523 24.7257C34.8753 24.3194 34.587 23.9605 34.1835 23.8945C29.6204 23.1446 27.5647 18.4696 27.4797 18.271C27.4742 18.2579 27.468 18.2449 27.4616 18.2323C27.2283 17.7601 27.1744 17.37 27.3009 17.0727C27.5499 16.4878 28.5058 16.1852 29.1383 15.985C29.3214 15.9275 29.494 15.8728 29.6377 15.8161C30.2604 15.5709 30.7054 15.3049 30.999 15.0028C31.3497 14.6427 31.418 14.2977 31.4137 14.0719C31.403 13.5256 30.9842 13.0401 30.3179 12.8024C30.0928 12.7096 29.8362 12.6607 29.5749 12.6607C29.397 12.6607 29.1336 12.685 28.8842 12.8011C28.3504 13.0502 27.8722 13.1863 27.4617 13.2057C27.2433 13.1947 27.0902 13.1475 26.9911 13.1025C27.0035 12.8894 27.0173 12.6705 27.0316 12.4422L27.0375 12.3445C27.1837 10.0345 27.3654 7.15964 26.6023 5.45295C26.0792 4.28402 25.3769 3.2787 24.5143 2.46363C23.7909 1.78061 22.9506 1.22697 22.0161 0.817713C20.3899 0.106282 18.8739 0 18.1151 0Z" fill="#FFC222"/>
</svg>
