<svg width="27" height="30" viewBox="0 0 27 30" fill="none" xmlns="http://www.w3.org/2000/svg">
<path fill-rule="evenodd" clip-rule="evenodd" d="M19.4241 10.8749C21.3867 12.2701 23.7371 13.0156 26.1451 13.0065V8.23421C25.6717 8.23552 25.1996 8.18484 24.7373 8.08309V11.885C22.3238 11.8893 19.97 11.1353 18.0083 9.72954V19.5446C18.0024 21.1552 17.5607 22.7341 16.7301 24.114C15.8995 25.4939 14.711 26.6233 13.2906 27.3824C11.8701 28.1415 10.2707 28.5021 8.66197 28.4259C7.0532 28.3498 5.49503 27.8396 4.1527 26.9496C5.39432 28.2059 6.98082 29.0655 8.71129 29.4195C10.4418 29.7735 12.2384 29.606 13.8736 28.9383C15.5088 28.2706 16.9091 27.1326 17.8972 25.6686C18.8853 24.2045 19.4167 22.4801 19.4241 20.7138V10.8749ZM21.166 6.00713C20.1679 4.92534 19.5555 3.54392 19.4241 2.07793V1.45753H18.0878C18.253 2.38938 18.6125 3.27605 19.1428 4.05988C19.6731 4.84372 20.3624 5.50718 21.166 6.00713ZM7.24674 23.1715C6.7836 22.5659 6.49978 21.8424 6.42757 21.0834C6.35537 20.3244 6.49768 19.5604 6.83832 18.8783C7.17895 18.1962 7.70423 17.6234 8.35436 17.2252C9.0045 16.8269 9.75338 16.6191 10.5158 16.6255C10.9367 16.6254 11.3552 16.6898 11.7566 16.8164V11.885C11.2873 11.8229 10.8141 11.7963 10.3408 11.8055V15.6392C9.36336 15.3303 8.30544 15.4005 7.37745 15.8361C6.44946 16.2716 5.71939 17.0404 5.33247 17.9897C4.94554 18.939 4.9301 19.9991 5.28921 20.9593C5.64833 21.9194 6.35569 22.7092 7.27061 23.1715H7.24674Z" fill="#EE1D52"/>
<path fill-rule="evenodd" clip-rule="evenodd" d="M18.0076 9.69772C19.9694 11.1035 22.3232 11.8575 24.7366 11.8532V8.05127C23.3615 7.76054 22.1124 7.04556 21.1653 6.00713C20.3618 5.50718 19.6724 4.84372 19.1421 4.05988C18.6118 3.27605 18.2523 2.38938 18.0872 1.45753H14.5716V20.7138C14.5683 21.5662 14.2982 22.3961 13.7991 23.0871C13.3001 23.7781 12.5972 24.2954 11.7891 24.5666C10.981 24.8377 10.1083 24.8489 9.29354 24.5987C8.47873 24.3485 7.76274 23.8495 7.24606 23.1715C6.42723 22.7584 5.77148 22.0814 5.3846 21.2499C4.99772 20.4183 4.90228 19.4807 5.11368 18.5882C5.32507 17.6957 5.83098 16.9005 6.54976 16.3309C7.26855 15.7612 8.15829 15.4503 9.07544 15.4484C9.49625 15.4497 9.91449 15.514 10.3162 15.6392V11.8055C8.58039 11.8472 6.89447 12.3948 5.46545 13.3811C4.03642 14.3674 2.92648 15.7495 2.27186 17.3577C1.61725 18.966 1.44646 20.7303 1.78045 22.4343C2.11445 24.1382 2.93869 25.7075 4.15201 26.9496C5.49462 27.846 7.05524 28.3614 8.66762 28.4409C10.28 28.5205 11.8838 28.1612 13.3081 27.4013C14.7324 26.6413 15.9239 25.5093 16.7557 24.1258C17.5875 22.7422 18.0284 21.1589 18.0315 19.5446L18.0076 9.69772Z" fill="#E3E3E3"/>
<path fill-rule="evenodd" clip-rule="evenodd" d="M24.7366 8.05127L24.737 7.0249C23.4742 7.03026 22.2361 6.67756 21.166 6.00713C22.1107 7.04855 23.3602 7.76412 24.7366 8.05127ZM18.0878 1.45753C18.0878 1.27459 18.0319 1.08337 18.0081 0.90043V0.280029H13.1562V19.5443C13.152 20.6229 12.72 21.6559 11.955 22.4164C11.19 23.1769 10.1546 23.6028 9.07589 23.6007C8.44075 23.6039 7.81411 23.4571 7.24674 23.1715C7.76342 23.8495 8.47873 24.3485 9.29354 24.5987C10.1083 24.8489 10.981 24.8377 11.7891 24.5666C12.5972 24.2954 13.3001 23.7781 13.7991 23.0871C14.2982 22.3961 14.5683 21.5662 14.5716 20.7138V1.45753H18.0878ZM10.3167 11.7972V10.7075C8.32018 10.4363 6.29068 10.8493 4.55893 11.8792C2.82719 12.9091 1.49532 14.4951 0.780383 16.3789C0.0654481 18.2626 0.00960572 20.3329 0.621956 22.2525C1.23431 24.172 2.47899 25.8279 4.1527 26.9496C2.94856 25.7047 2.13286 24.1356 1.80568 22.4348C1.4785 20.734 1.65378 18.9747 2.31011 17.3718C2.96643 15.769 4.07538 14.392 5.50147 13.4091C6.92757 12.4262 8.60907 11.8799 10.3406 11.837L10.3167 11.7972Z" fill="#69C9D0"/>
</svg>
