<svg width="31" height="26" viewBox="0 0 31 26" fill="none" xmlns="http://www.w3.org/2000/svg">
<path d="M30.0583 3.80207C29.0907 4.21847 28.0735 4.50843 27.0318 4.66478C27.5188 4.5813 28.2355 3.70466 28.5207 3.34983C28.9541 2.81461 29.2843 2.20361 29.4947 1.54787C29.4947 1.49916 29.5434 1.42959 29.4947 1.3948C29.4702 1.38141 29.4427 1.37439 29.4147 1.37439C29.3868 1.37439 29.3593 1.38141 29.3347 1.3948C28.2036 2.00735 26.9997 2.47486 25.7517 2.78628C25.7082 2.79957 25.6619 2.80077 25.6177 2.78973C25.5736 2.7787 25.5333 2.75586 25.5012 2.72367C25.404 2.60799 25.2995 2.49876 25.1881 2.39667C24.6791 1.94058 24.1015 1.56728 23.4766 1.29044C22.633 0.944365 21.7219 0.794486 20.8119 0.852126C19.929 0.907888 19.0669 1.14471 18.2794 1.54787C17.5039 1.97291 16.8224 2.55035 16.2757 3.24547C15.7006 3.96094 15.2855 4.79125 15.0581 5.68057C14.8707 6.52648 14.8494 7.40077 14.9955 8.25481C14.9955 8.40091 14.9955 8.42178 14.8703 8.40091C9.90965 7.67038 5.83957 5.91016 2.51393 2.13229C2.36782 1.96531 2.29129 1.96531 2.17302 2.13229C0.725876 4.33083 1.42857 7.80953 3.2375 9.52801C3.48101 9.75761 3.73147 9.98024 3.99586 10.189C3.16648 10.1301 2.35735 9.90533 1.61642 9.52801C1.47728 9.43756 1.40074 9.48627 1.39379 9.65324C1.37406 9.88474 1.37406 10.1175 1.39379 10.349C1.53896 11.4584 1.97618 12.5094 2.66073 13.3944C3.34529 14.2794 4.25262 14.9668 5.28993 15.3861C5.54281 15.4945 5.8063 15.5761 6.07612 15.6297C5.30832 15.7808 4.52084 15.8043 3.74539 15.6992C3.57841 15.6644 3.5158 15.7549 3.57841 15.9149C4.60115 18.6979 6.82056 19.5467 8.4486 20.0198C8.67123 20.0546 8.89387 20.0546 9.14434 20.1102C9.14434 20.1102 9.14434 20.1102 9.10259 20.152C8.62253 21.0286 6.68141 21.62 5.79087 21.9261C4.16539 22.51 2.43233 22.7331 0.711961 22.5801C0.440622 22.5384 0.378006 22.5453 0.308432 22.5801C0.238857 22.6149 0.308432 22.6914 0.384963 22.761C0.732833 22.9906 1.0807 23.1924 1.44249 23.3872C2.51953 23.9746 3.65817 24.4413 4.8377 24.7786C10.9463 26.4623 17.8202 25.2239 22.4052 20.6668C26.0091 17.0907 27.2753 12.1579 27.2753 7.21815C27.2753 7.0303 27.5049 6.91898 27.6371 6.82158C28.5489 6.11115 29.3527 5.27216 30.0235 4.33083C30.1397 4.19051 30.1992 4.01185 30.1905 3.8299V3.8299C30.1905 3.72553 30.1905 3.74641 30.0583 3.80207Z" fill="#5392F5"/>
</svg>
