<svg width="37" height="26" viewBox="0 0 37 26" fill="none" xmlns="http://www.w3.org/2000/svg">
<path fill-rule="evenodd" clip-rule="evenodd" d="M32.933 0.962134C34.5057 1.38686 35.7419 2.62613 36.1597 4.19704C36.9199 7.04795 36.9199 13 36.9199 13C36.9199 13 36.9199 18.952 36.1597 21.8029C35.7361 23.3796 34.4999 24.6189 32.933 25.0378C30.0894 25.7999 18.6799 25.7999 18.6799 25.7999C18.6799 25.7999 7.27631 25.7999 4.42686 25.0378C2.85414 24.613 1.61803 23.3738 1.20018 21.8029C0.439941 18.952 0.439941 13 0.439941 13C0.439941 13 0.439941 7.04795 1.20018 4.19704C1.62383 2.62031 2.85995 1.38104 4.42686 0.962134C7.27631 0.199951 18.6799 0.199951 18.6799 0.199951C18.6799 0.199951 30.0894 0.199951 32.933 0.962134ZM24.5123 13L15.0354 18.4865V7.51341L24.5123 13Z" fill="#C00A27"/>
</svg>
